<svg width="72" height="72" xmlns="http://www.w3.org/2000/svg" xmlns:xlink="http://www.w3.org/1999/xlink"><defs><path d="M35.85 14.71c11.706.006 21.194 9.494 21.2 21.2a21.21 21.21 0 11-21.2-21.2zm2.391 1.645l.018-.037a14.14 14.14 0 00-.779 1.878l-.084.18c-.086.18-.18.37-.342.697a70.29 70.29 0 00-.21.426l-.965 1.981c.126.04.23.072.329.099.309.083.522.104.603.08.021-.005.14-.13.37-.459l.05-.07c.448-.638.686-.9 1.146-1.072 1.8-.673 4.213-.108 4.513 1.733.114.705-.17 1.18-.944 2.074l-.072.083c-.352.407-.529.632-.608.758.202-.09.461-.25.77-.474.141-.1.29-.214.456-.344.173-.135.786-.63.706-.566a6.7 6.7 0 01.605-.448.75.75 0 011.121.831c-.057.212-.016.336.217.688.067.1.104.156.141.215.228.36.348.663.348 1.042 0 .44-.172.725-.488.991.368.438.111 1.189-.537 1.228l-.186.01.06.166a.75.75 0 01-.391.924c-.123.058-.26.112-.446.18l-.15.052-.25.086-.156.055-.242.085c-.563.205-.906.386-.996.506-.061.08-.079.118-.082.138a.667.667 0 00.041.211c.013.045.17.532.225.731l.022.082a.75.75 0 01-.5.91c-.653.205-1.165.185-1.551-.186-.294-.282-.35-.514-.4-1.052a4.977 4.977 0 00-.02-.192c-.018-.137-.036-.187-.05-.202.02.021-.185-.028-.49-.04a6.592 6.592 0 00-.838.03l-.073.07-.002.002-.145.141-.068.062a1.544 1.544 0 01-.138.112.749.749 0 01-.335.15.958.958 0 01-.828-.133c-.364.202-.37.33-.26.759-.006-.03.016-.006.094.06l.064.055c.28.24.43.4.551.674.148.334.14.582.061 1.047l-.004.026c-.028.161-.033.226-.069.163.204.359.543.63.987.766.721.266 1.461.351 2.928.393l.189.005c1.365.037 1.968.081 2.704.243 1.525.335 3.027 1.112 3.517 2.152.499 1.056.05 3.66-.61 4.779-.5.852-1.07 1.412-2.432 2.543l-.046.038c-.988.821-1.41 1.213-1.794 1.715-.374.49-.557 1.18-.747 2.587l-.01.076-.014.105-.01.077c-.3 2.238-.573 3.124-1.562 3.8a.75.75 0 01-1.084-.266 33.101 33.101 0 01-2.259-5.283c-.215-.732-.304-1.4-.4-2.653l-.012-.156c-.11-1.44-.196-2.05-.422-2.678-.076-.185-.34-.477-.81-.88a24.352 24.352 0 00-.439-.364c-1.545-1.265-1.867-1.597-1.805-2.405.07-.933.52-1.49 1.433-2.159l.302-.22c.6-.443.639-.532.368-1.003-.261-.44-.54-.574-1.432-.755-.607-.124-.834-.178-1.216-.317a10.22 10.22 0 01-1.597-.851.75.75 0 01-.144.145c-.927.711-1.814.227-2.467-.807-.362-.571-.671-1.328-.878-2.013-.186-.624-.16-1.092.008-2.105l.036-.219c.08-.507.097-.811.046-1.092-.279-1.603-1.41-2.456-3.256-2.766-.954-.16-1.969-.155-3.022-.046-.166.017-.258.028-.502.058l-.165.02-.089.006c-.04.008-.05.01-.196-.027a19.54 19.54 0 00-2.519 4.379A19.71 19.71 0 1055.55 35.91c-.005-10.068-7.559-18.371-17.309-19.555zM36.698 35.32c-.042.618-.45 1.135-1.15 1.652l-.307.223c-.588.432-.795.687-.823 1.062a.36.36 0 00.069.082l.09.091c.185.18.537.497 1.1.958.202.165.333.274.465.387.644.552 1.027.974 1.233 1.48.3.828.398 1.524.518 3.102l.012.155c.089 1.152.168 1.744.337 2.323a31.57 31.57 0 001.604 3.953c.147-.43.26-1.047.382-1.958l.01-.077.014-.105.01-.078c.226-1.667.453-2.525 1.042-3.296.475-.623.951-1.064 2.028-1.959l.045-.038c1.224-1.017 1.717-1.499 2.097-2.149.434-.736.798-2.848.548-3.379-.232-.492-1.377-1.084-2.483-1.327-.61-.134-1.154-.174-2.423-.209l-.056-.001-.078-.002-.056-.002c-1.627-.046-2.484-.144-3.362-.47a3.06 3.06 0 01-.866-.418zm-.848-19.11a19.709 19.709 0 00-14.35 6.187c.982-.07 1.938-.05 2.873.107 2.413.405 4.081 1.664 4.485 3.982.088.484.064.93-.042 1.591l-.037.229c-.131.786-.148 1.101-.05 1.428l.005.019a.725.725 0 01.97.153 8.683 8.683 0 003.221 2.389c.251.09.434.134.968.243.785.16 1.318.334 1.74.658l.01-.062.004-.024c.026-.148.03-.21.042-.195-.007-.006-.048-.048-.15-.134l-.065-.056c-.3-.257-.46-.442-.56-.786-.313-1.201-.001-2.028 1.324-2.661.354-.162.65-.132.913.017a5.54 5.54 0 01.14-.132c.205-.182.288-.24.528-.267 1.181-.146 2.146-.119 2.691.34.042-.07.09-.14.142-.21.329-.432.842-.704 1.679-1.008.078-.029.268-.095.429-.151a4.07 4.07 0 00-.155-.252.75.75 0 01.58-1.164l.125-.007c.05-.238.206-.469.478-.673.058-.044.305-.213.276-.193l-.022.015.037-.024a.155.155 0 01.025-.014h.003l-.008-.01c-.019-.027-.046-.074-.085-.135a9.46 9.46 0 00-.123-.189 4.928 4.928 0 01-.218-.356l-.256.204c-.18.141-.345.266-.503.38-1.177.849-1.987 1.164-2.699.526-.994-.904-.667-1.634.526-3.01l.07-.08c.45-.521.61-.787.599-.854-.104-.64-1.466-.958-2.507-.569-.06.023-.186.162-.444.53l-.05.071c-.442.627-.697.897-1.18 1.037-.414.12-.858.076-1.412-.073a9.3 9.3 0 01-.473-.143l-.537-.176-.063-.02a.15.15 0 00-.038-.01c-.007.002-.013.001-.03-.002a.75.75 0 01-.53-1.065l1.35-2.77.214-.434c.21-.425.302-.612.378-.763.16-.482.344-.955.553-1.418-.261-.01-.526-.016-.791-.016z" id="a"/></defs><g fill="none" fill-rule="evenodd"><path d="M36 71.999c-19.882 0-36-16.117-36-36C0 16.118 16.118 0 36 0s36 16.118 36 36-16.118 35.999-36 35.999z" fill="#00549A"/><mask id="b" fill="#fff"><use xlink:href="#a"/></mask><use fill="#00549A" fill-rule="nonzero" xlink:href="#a"/><g mask="url(#b)" fill="#FFF"><path d="M0 0h72v72H0z"/></g></g></svg>